Title                            : Give 'em Hell, Malone
Year                             : 2009
Genre                            : Action | Crime | Thriller
iMDB URL                         : http://www.imdb.com/title/tt1258137/

Complete name                    : Give.em.Hell.Malone.2009.DVDRIP.XviD-ZEKTORM.avi
Format                           : AVI
File size                        : 701 MiB
Duration                         : 1h 36mn
Overall bit rate                 : 1016 Kbps
Subtitles                        : English, Spanish (Format: VobSub)

Video
Format                           : MPEG-4 Visual
Format profile                   : Streaming Video@L1
Codec ID/Hint                    : XviD
Duration                         : 1h 36mn
Bit rate                         : 894 Kbps
Width                            : 720 pixels
Height                           : 304 pixels
Display aspect ratio             : 2.35
Frame rate                       : 23.976 fps
Resolution                       : 24 bits
Colorimetry                      : 4:2:0
Scan type                        : Progressive
Bits/(Pixel*Frame)               : 0.170
Stream size                      : 617 MiB (88%)
Writing library                  : XviD

Audio
Format                           : MPEG Audio
Format version                   : Version 1
Format profile                   : Layer 3
Codec ID                         : 55
Codec ID/Hint                    : MP3
Duration                         : 1h 36mn
Bit rate mode                    : Variable
Bit rate                         : 109 Kbps
Minimum bit rate                 : 128 Kbps
Channel(s)                       : 2 channels
Sampling rate                    : 48.0 KHz
Resolution                       : 16 bits
Stream size                      : 75.1 MiB (11%)
Writing library                  : LAME3.98r
Encoding settings                : ABR
